<?xml version="1.0" encoding="utf-8"?>
<!-- Generator: Adobe Illustrator 17.0.0, SVG Export Plug-In . SVG Version: 6.00 Build 0)  -->
<!DOCTYPE svg PUBLIC "-//W3C//DTD SVG 1.1//EN" "http://www.w3.org/Graphics/SVG/1.1/DTD/svg11.dtd">
<svg version="1.1" id="Calque_1" xmlns="http://www.w3.org/2000/svg" xmlns:xlink="http://www.w3.org/1999/xlink" x="0px" y="0px"
	 width="37.713px" height="29.666px" viewBox="0 0 37.713 29.666" enable-background="new 0 0 37.713 29.666" xml:space="preserve">
<g>
	<polygon fill="#262626" points="37.713,14.833 32.422,9.873 32.422,13.422 18.553,13.422 18.553,16.244 32.422,16.244 
		32.422,19.793 	"/>
	<path fill="#262626" d="M14.813,26.844c-6.623,0-12.011-5.388-12.011-12.011S8.19,2.822,14.813,2.822
		c5.2,0,9.638,3.322,11.305,7.954h2.964C27.313,4.563,21.586,0,14.813,0C6.634,0-0.02,6.654-0.02,14.833
		c0,8.179,6.654,14.833,14.833,14.833c6.773,0,12.5-4.563,14.269-10.776h-2.964C24.451,23.522,20.013,26.844,14.813,26.844z"/>
</g>
</svg>
