<?xml version="1.0" encoding="utf-8"?>
<!-- Generator: Adobe Illustrator 17.0.0, SVG Export Plug-In . SVG Version: 6.00 Build 0)  -->
<!DOCTYPE svg PUBLIC "-//W3C//DTD SVG 1.1//EN" "http://www.w3.org/Graphics/SVG/1.1/DTD/svg11.dtd">
<svg version="1.1" id="Calque_1" xmlns="http://www.w3.org/2000/svg" xmlns:xlink="http://www.w3.org/1999/xlink" x="0px" y="0px"
	 width="216.494px" height="31.671px" viewBox="0 0 216.494 31.671" enable-background="new 0 0 216.494 31.671"
	 xml:space="preserve">
<g>
	<path fill="#191919" d="M0,30.627h4.79L5.831,1.518H1.233V0.476h6.068l11.095,24.795L29.491,0.476h5.927v1.042h-4.599l1.043,29.109
		h4.788v1.044H26.552v-1.044h4.172l-0.996-28.02L18.586,27.401h-0.474L6.97,2.511L5.926,30.627h4.173v1.044H0V30.627z"/>
	<path fill="#191919" d="M73.474,30.627h4.693V1.518h-4.693V0.476h10.716v1.042h-4.742v29.109h4.742v1.044H73.474V30.627z"/>
	<path fill="#191919" d="M122.155,16.309C122.155,7.301,128.65,0,137.47,0c6.592,0,11.475,4.028,11.475,7.916
		c0,1.138-0.617,1.801-1.517,1.801c-0.711,0-1.329-0.568-1.329-1.327c0-0.758,0.523-1.422,1.469-1.516
		c-0.425-2.467-4.313-5.832-10.098-5.832c-8.154,0-14.035,6.78-14.035,15.221c0,8.296,5.737,14.839,14.179,14.839
		c4.218,0,7.822-1.706,10.572-4.456l0.664,0.804c-3.036,2.941-6.591,4.695-11.236,4.695
		C128.272,32.146,122.155,24.939,122.155,16.309z"/>
	<path fill="#191919" d="M184.823,30.627h3.698l10.856-29.109h-4.268V0.476h11.047v1.042h-4.219l10.811,29.109h3.745v1.044h-9.531
		v-1.044h4.458l-3.982-10.859h-13.607L189.8,30.627h4.553v1.044h-9.529V30.627z M207.059,18.728l-6.401-17.354l-6.448,17.354
		H207.059z"/>
</g>
</svg>
