<?xml version="1.0" encoding="utf-8"?>
<!-- Generated by IcoMoon.io -->
<!DOCTYPE svg PUBLIC "-//W3C//DTD SVG 1.1//EN" "http://www.w3.org/Graphics/SVG/1.1/DTD/svg11.dtd">

<svg version="1.1" xmlns="http://www.w3.org/2000/svg" xmlns:xlink="http://www.w3.org/1999/xlink" width="416" height="32" viewBox="0 0 416 32">
<defs>
<g id="icon-activites">
	<path class="path1" d="M7.84 19.68h-1.984v-2.784h-2.848v-1.952h2.848v-2.784h1.984v2.784h2.848v1.952h-2.848v2.784zM6.048 19.488h1.6v-2.784h2.848v-1.568h-2.848v-2.784h-1.6v2.784h-2.848v1.568h2.848v2.784z"></path>
	<path class="path2" d="M21.856 17.536c-0.896 0-1.632-0.704-1.632-1.6s0.736-1.6 1.632-1.6 1.632 0.704 1.632 1.6c0 0.864-0.704 1.6-1.632 1.6zM21.856 14.528c-0.8 0-1.44 0.64-1.44 1.408s0.64 1.408 1.44 1.408c0.8 0 1.44-0.64 1.44-1.408 0-0.8-0.64-1.408-1.44-1.408z"></path>
	<path class="path3" d="M28.128 17.536c-0.896 0-1.632-0.704-1.632-1.6s0.736-1.6 1.632-1.6 1.632 0.704 1.632 1.6c0 0.864-0.736 1.6-1.632 1.6zM28.128 14.528c-0.8 0-1.44 0.64-1.44 1.408s0.64 1.408 1.44 1.408c0.8 0 1.44-0.64 1.44-1.408 0-0.8-0.64-1.408-1.44-1.408z"></path>
	<path class="path4" d="M24.992 20.608c-0.896 0-1.632-0.704-1.632-1.6s0.736-1.6 1.632-1.6c0.896 0 1.632 0.704 1.632 1.6s-0.736 1.6-1.632 1.6zM24.992 17.6c-0.8 0-1.44 0.64-1.44 1.408s0.64 1.408 1.44 1.408 1.44-0.64 1.44-1.408c0-0.8-0.64-1.408-1.44-1.408z"></path>
	<path class="path5" d="M24.992 14.464c-0.896 0-1.632-0.704-1.632-1.6s0.736-1.6 1.632-1.6c0.896 0 1.632 0.704 1.632 1.6 0 0.864-0.736 1.6-1.632 1.6zM24.992 11.456c-0.8 0-1.44 0.64-1.44 1.408s0.64 1.408 1.44 1.408 1.44-0.64 1.44-1.408c0-0.768-0.64-1.408-1.44-1.408z"></path>
	<path class="path6" d="M24.864 23.072c-1.824 0-3.52-0.672-4.864-1.888h-8c-1.312 1.216-3.040 1.888-4.864 1.888-3.936 0-7.136-3.168-7.136-7.072s3.2-7.072 7.136-7.072c1.728 0 3.392 0.608 4.672 1.728h8.352c1.312-1.12 2.976-1.728 4.672-1.728 3.968 0 7.168 3.168 7.168 7.072s-3.2 7.072-7.136 7.072zM11.904 20.96h8.192l0.032 0.032c1.28 1.216 2.976 1.856 4.736 1.856 3.808 0 6.944-3.072 6.944-6.848s-3.104-6.848-6.944-6.848c-1.696 0-3.328 0.608-4.576 1.696l-0.032 0.032h-8.512l-0.032-0.032c-1.28-1.088-2.88-1.696-4.576-1.696-3.84 0-6.944 3.072-6.944 6.848s3.104 6.848 6.944 6.848c1.76 0 3.456-0.64 4.768-1.888v0z"></path>
</g>
<g id="icon-boucles">
	<path class="path1" d="M18.56 32l-0.064-0.32c1.152-0.224 1.952-2.912 1.664-5.536-0.128-1.248-0.448-2.208-0.896-2.944-0.448 0.672-1.12 1.312-2.144 1.856-2.752 1.44-4.896 0.928-5.984-0.032-0.8-0.704-1.12-1.728-0.768-2.624 0.48-1.28 2.016-2.016 4.256-2.048 2.016-0.032 3.584 0.768 4.608 2.208 0.512-1.024 0.512-2.112 0.352-3.008-0.192-1.12-0.704-2.24-1.376-3.264-0.608 0.576-1.408 0.96-2.464 1.152-2.784 0.512-4.736 0.192-5.536-0.96-0.512-0.736-0.48-1.76 0.096-2.72s1.792-1.856 3.168-1.696c1.472 0.192 3.392 1.696 4.768 3.68 0.608-0.768 0.736-1.696 0.672-2.496-0.096-1.6-0.96-3.424-2.048-4.928-0.896 0.896-2.304 1.472-4.032 1.6-1.664 0.096-2.88-0.32-3.392-1.152-0.352-0.608-0.32-1.376 0.096-2.080 0.48-0.832 1.6-1.696 3.296-1.6 1.28 0.064 2.784 1.184 4.032 2.752 0.288-0.352 0.512-0.768 0.608-1.216 0.448-1.76-0.672-3.648-2.944-5.088l0.192-0.288c2.432 1.504 3.584 3.52 3.104 5.44-0.128 0.512-0.384 0.992-0.736 1.408 1.184 1.568 2.080 3.456 2.176 5.12 0.064 1.152-0.192 2.080-0.8 2.816 0.704 1.088 1.216 2.272 1.44 3.456 0.192 1.024 0.16 2.24-0.448 3.392 0.544 0.864 0.896 1.952 1.024 3.232 0.32 2.848-0.576 5.6-1.92 5.888zM14.752 20.672c-0.032 0-0.064 0-0.096 0-2.112 0.032-3.552 0.704-3.968 1.824-0.288 0.768 0 1.632 0.704 2.24 0.992 0.864 3.008 1.344 5.6-0.032 1.024-0.544 1.696-1.184 2.112-1.856-1.28-1.888-3.264-2.176-4.352-2.176zM13.152 12.352c-1.088 0-2.048 0.736-2.528 1.536-0.512 0.832-0.544 1.728-0.128 2.368 0.416 0.608 1.632 1.504 5.184 0.832 1.088-0.192 1.856-0.608 2.336-1.088-1.344-1.952-3.2-3.456-4.576-3.616-0.064 0-0.192-0.032-0.288-0.032zM12.64 5.408c-1.408 0-2.368 0.736-2.784 1.44-0.352 0.608-0.384 1.248-0.096 1.728 0.448 0.736 1.536 1.088 3.072 0.992 1.664-0.096 3.008-0.64 3.84-1.536-1.184-1.504-2.624-2.592-3.84-2.656-0.064 0.032-0.128 0.032-0.192 0.032z"></path>
	<path class="path2" d="M19.648 31.392l-0.064-0.32c1.152-0.224 1.952-2.912 1.664-5.536-0.128-1.248-0.448-2.208-0.896-2.944-0.448 0.672-1.12 1.312-2.144 1.856-2.752 1.44-4.896 0.928-5.984-0.032-0.8-0.704-1.12-1.728-0.768-2.624 0.48-1.28 2.016-2.016 4.256-2.048 2.016-0.032 3.584 0.768 4.608 2.208 0.512-1.024 0.512-2.112 0.352-3.008-0.192-1.12-0.704-2.24-1.376-3.264-0.576 0.576-1.408 0.96-2.464 1.152-2.784 0.512-4.736 0.192-5.536-0.96-0.512-0.736-0.48-1.76 0.096-2.72s1.792-1.856 3.168-1.696c1.472 0.192 3.392 1.696 4.768 3.68 0.608-0.768 0.736-1.696 0.672-2.496-0.096-1.6-0.96-3.424-2.048-4.928-0.896 0.896-2.304 1.472-4.032 1.6-1.664 0.096-2.88-0.32-3.392-1.152-0.352-0.608-0.32-1.376 0.096-2.080 0.48-0.832 1.6-1.696 3.296-1.6 1.28 0.064 2.784 1.184 4.032 2.752 0.288-0.352 0.512-0.768 0.608-1.216 0.448-1.76-0.672-3.648-2.944-5.088l0.16-0.288c2.432 1.504 3.584 3.52 3.104 5.44-0.128 0.512-0.384 0.992-0.736 1.408 1.184 1.568 2.080 3.456 2.176 5.12 0.064 1.152-0.192 2.080-0.8 2.816 0.704 1.088 1.216 2.272 1.44 3.456 0.192 1.024 0.16 2.24-0.448 3.392 0.544 0.864 0.896 1.952 1.024 3.232 0.384 2.848-0.544 5.6-1.888 5.888zM15.84 20.064c-0.032 0-0.064 0-0.096 0-2.112 0.032-3.552 0.704-3.968 1.824-0.288 0.768 0 1.632 0.704 2.24 0.992 0.864 3.008 1.344 5.6-0.032 1.024-0.544 1.696-1.184 2.112-1.856-1.28-1.888-3.264-2.176-4.352-2.176zM14.272 11.744c-1.088 0-2.048 0.736-2.528 1.536-0.512 0.832-0.544 1.728-0.128 2.368 0.416 0.608 1.632 1.504 5.184 0.832 1.088-0.192 1.856-0.608 2.336-1.088-1.344-1.952-3.2-3.456-4.576-3.616-0.096-0.032-0.192-0.032-0.288-0.032zM13.76 4.8c-1.408 0-2.368 0.736-2.784 1.44-0.352 0.608-0.384 1.248-0.096 1.728 0.448 0.736 1.536 1.088 3.072 0.992 1.664-0.096 3.008-0.64 3.84-1.504-1.184-1.504-2.624-2.592-3.84-2.656-0.064 0-0.128 0-0.192 0z"></path>
	<path class="path3" d="M20.768 30.752l-0.064-0.32c1.152-0.224 1.952-2.912 1.664-5.536-0.128-1.248-0.448-2.208-0.896-2.944-0.448 0.672-1.12 1.312-2.144 1.856-2.752 1.44-4.896 0.928-5.984-0.032-0.8-0.704-1.12-1.728-0.768-2.624 0.48-1.28 2.016-2.016 4.256-2.048 1.984-0.032 3.584 0.768 4.608 2.208 0.512-1.024 0.512-2.112 0.352-3.008-0.192-1.12-0.704-2.24-1.376-3.264-0.608 0.576-1.408 0.96-2.464 1.152-2.784 0.512-4.736 0.192-5.536-0.96-0.512-0.736-0.48-1.76 0.096-2.72s1.792-1.856 3.168-1.696c1.472 0.192 3.392 1.696 4.768 3.68 0.608-0.768 0.736-1.696 0.672-2.496-0.096-1.6-0.96-3.424-2.080-4.928-0.896 0.896-2.304 1.472-4.032 1.6-1.664 0.096-2.88-0.32-3.392-1.152-0.352-0.608-0.32-1.376 0.096-2.080 0.48-0.832 1.6-1.696 3.296-1.6 1.28 0.064 2.784 1.184 4.032 2.752 0.288-0.352 0.512-0.768 0.608-1.216 0.448-1.76-0.672-3.648-2.944-5.088l0.224-0.288c2.432 1.504 3.584 3.52 3.104 5.44-0.128 0.512-0.384 0.992-0.736 1.408 1.184 1.568 2.080 3.456 2.176 5.12 0.064 1.152-0.192 2.080-0.8 2.816 0.704 1.088 1.248 2.272 1.44 3.488 0.192 1.024 0.16 2.24-0.448 3.392 0.544 0.864 0.896 1.952 1.024 3.232 0.32 2.848-0.576 5.568-1.92 5.856zM16.928 19.456c-0.032 0-0.064 0-0.096 0-2.112 0.032-3.552 0.704-3.968 1.824-0.288 0.768 0 1.632 0.704 2.24 0.992 0.864 3.008 1.344 5.6-0.032 1.024-0.544 1.696-1.184 2.112-1.856-1.28-1.888-3.264-2.176-4.352-2.176zM15.36 11.136c-1.088 0-2.048 0.736-2.528 1.536-0.512 0.832-0.544 1.728-0.128 2.368 0.416 0.608 1.632 1.504 5.184 0.832 1.088-0.192 1.856-0.608 2.336-1.088-1.344-1.952-3.2-3.456-4.576-3.616-0.096-0.032-0.192-0.032-0.288-0.032zM14.848 4.16c-1.408 0-2.368 0.736-2.784 1.44-0.352 0.608-0.384 1.248-0.096 1.728 0.448 0.736 1.536 1.088 3.072 0.992 1.664-0.096 3.008-0.64 3.84-1.504-1.184-1.504-2.624-2.592-3.84-2.656-0.064 0-0.128 0-0.192 0z"></path>
</g>
<g id="icon-catalogue">
	<path class="path1" d="M30.592 6.208v-3.104h-0.16c-9.248 0.352-13.408 3.008-14.4 4.128-1.6-2.656-10.080-4.032-14.368-4.16h-0.16v3.136c-0.992-0.032-1.344 0-1.344 0h-0.128l-0.032 18.72 0.224-0.192c0.224-0.192 2.368-0.16 5.696 0.384 4.128 0.64 8.832 1.92 9.952 3.52v0 0c0.032 0.032 0.032 0.032 0.064 0.064l0.128 0.224 0.096-0.256c0.576-1.248 3.328-2.336 7.936-3.136 3.52-0.608 7.2-0.864 7.744-0.8l0.16 0.032v-18.56h-1.408zM20.192 5.184c1.92-0.704 5.216-1.568 10.112-1.792v18.976c-2.464-0.224-11.552 1.28-14.144 3.968v-18.784c0.384-0.576 1.696-1.536 4.032-2.368zM1.792 3.392c4.256 0.16 12.832 1.568 14.080 4.16v18.784c-2.112-2.144-7.776-3.776-14.080-4.032v-18.912zM5.952 24.8c-2.336-0.384-4.864-0.608-5.696-0.416l0.032-17.92c0.192 0 0.544 0 1.184 0v16.096h0.128c6.4 0.256 12.352 1.984 14.24 4.16v1.44c-1.792-1.952-7.936-3.040-9.888-3.36zM31.712 24.416c-1.728-0.032-13.376 0.928-15.584 3.776v-1.44c2.080-2.56 10.4-4.128 13.536-4.128 0.288 0 0.544 0 0.736 0.032l0.16 0.032v-16.192h1.152v17.92z"></path>
</g>
<g id="icon-couleurs">
	<path class="path1" d="M15.168 28.928c-1.664 0-2.88-0.416-3.584-1.216-0.544-0.608-0.768-1.44-0.64-2.4 0.032-0.32 0.096-0.608 0.128-0.896 0.416-2.848 0.544-3.584-7.104-5.664-2.88-0.96-4.288-2.944-3.872-5.504 0.352-2.368 2.176-4.896 4.896-6.848 3.008-2.144 6.752-3.328 10.496-3.328 4.032 0 7.904 1.248 10.976 3.52 2.88 2.144 4.832 5.056 5.376 8.064 0.48 2.56 0.48 8.896-9.28 12.576-2.976 1.12-5.44 1.696-7.392 1.696zM15.488 3.36c-6.4 0-14.24 4.224-15.136 9.888-0.384 2.432 0.928 4.288 3.68 5.184 7.904 2.144 7.744 3.040 7.296 5.984-0.032 0.288-0.096 0.576-0.128 0.896-0.128 0.864 0.096 1.632 0.576 2.176 0.64 0.736 1.824 1.12 3.392 1.12 1.92 0 4.384-0.576 7.296-1.664 6.752-2.528 10.080-7.008 9.12-12.256-1.312-7.072-9.216-11.328-16.096-11.328z"></path>
	<path class="path2" d="M6.4 15.808c-1.248 0-2.24-0.992-2.24-2.24s0.992-2.24 2.24-2.24c1.248 0 2.24 0.992 2.24 2.24 0 1.216-1.024 2.24-2.24 2.24zM6.4 11.584c-1.088 0-1.952 0.896-1.952 1.952s0.896 1.952 1.952 1.952c1.088 0 1.952-0.896 1.952-1.952s-0.896-1.952-1.952-1.952z"></path>
	<path class="path3" d="M12.192 10.848c-1.248 0-2.24-0.992-2.24-2.24s0.992-2.24 2.24-2.24c1.248 0 2.24 0.992 2.24 2.24s-0.992 2.24-2.24 2.24zM12.192 6.656c-1.088 0-1.952 0.896-1.952 1.952 0 1.088 0.896 1.952 1.952 1.952 1.088 0 1.952-0.896 1.952-1.952 0.032-1.088-0.864-1.952-1.952-1.952z"></path>
	<path class="path4" d="M18.752 10.848c-1.248 0-2.24-0.992-2.24-2.24s0.992-2.24 2.24-2.24c1.248 0 2.24 0.992 2.24 2.24s-0.992 2.24-2.24 2.24zM18.752 6.656c-1.088 0-1.952 0.896-1.952 1.952 0 1.088 0.896 1.952 1.952 1.952s1.952-0.896 1.952-1.952c0.032-1.088-0.864-1.952-1.952-1.952z"></path>
	<path class="path5" d="M25.44 14.304c-1.248 0-2.24-0.992-2.24-2.24s0.992-2.24 2.24-2.24c1.248 0 2.24 0.992 2.24 2.24s-0.992 2.24-2.24 2.24zM25.44 10.112c-1.088 0-1.952 0.896-1.952 1.952 0 1.088 0.896 1.952 1.952 1.952s1.952-0.896 1.952-1.952c0.032-1.056-0.864-1.952-1.952-1.952z"></path>
	<path class="path6" d="M15.84 26.528c-1.248 0-2.24-0.992-2.24-2.24s0.992-2.24 2.24-2.24c1.248 0 2.24 0.992 2.24 2.24s-1.024 2.24-2.24 2.24zM15.84 22.336c-1.088 0-1.952 0.896-1.952 1.952 0 1.088 0.896 1.952 1.952 1.952 1.088 0 1.952-0.896 1.952-1.952 0-1.088-0.896-1.952-1.952-1.952z"></path>
</g>
<g id="icon-court">
	<path class="path1" d="M26.784 19.072c-1.248 0-1.568-2.816-1.824-5.088-0.096-0.96-0.224-1.888-0.352-2.144-0.16-0.32-0.064-0.768 0.032-1.28 0.128-0.608 0.256-1.28-0.032-1.632-0.448-0.544-1.952-0.416-4.448 0.416-1.856 0.64-3.808 0.96-5.728 0.96-3.424 0-5.984-1.024-6.816-1.408 0.16 1.632 0.704 8.896-2.72 10.176-0.032 0-0.064 0-0.096 0-1.408-0.448-1.44-2.144-1.44-2.144l-0.64-6.56c-0.096-0.448-0.832-4.32 0.768-4.768 1.44-0.416 9.376-5.088 9.44-5.152 0 0 0.576-0.448 1.248-0.448 0.64 0 11.264 0.8 11.872 0.832 0 0 0.032 0 0.064 0 0.384 0 2.368 0.192 3.136 4.192 0.384 2.112 0.416 5.312 0.096 8.16-0.224 1.888-0.768 5.152-2.080 5.76-0.192 0.096-0.352 0.128-0.48 0.128zM23.584 8.256c0.64 0 1.056 0.16 1.312 0.48 0.416 0.512 0.256 1.248 0.096 1.92-0.096 0.416-0.192 0.864-0.064 1.056 0.192 0.352 0.288 1.184 0.384 2.272 0.224 1.888 0.544 4.768 1.472 4.768 0.096 0 0.192-0.032 0.288-0.064 1.792-0.864 2.624-9.056 1.792-13.568-0.704-3.744-2.432-3.936-2.784-3.936h-0.032c-0.128 0-11.264-0.832-11.872-0.832-0.576 0-1.056 0.384-1.056 0.384-0.352 0.192-8.064 4.768-9.536 5.184-1.088 0.32-0.736 3.264-0.512 4.384l0.64 6.592c0 0.064 0.032 1.44 1.152 1.824 3.456-1.408 2.432-10.016 2.4-10.112 0-0.064 0.032-0.128 0.064-0.16 0.064-0.032 0.128-0.032 0.192 0 0.032 0 2.816 1.504 6.944 1.504 0 0 0 0 0 0 1.888 0 3.776-0.32 5.632-0.928 1.504-0.512 2.656-0.768 3.488-0.768z"></path>
	<path class="path2" d="M16 32c-6.112 0-11.136-5.76-11.392-13.088 0-0.064 0.032-0.096 0.064-0.16 0.032-0.032 0.096-0.032 0.16-0.032 2.848-1.152 2.624-7.36 2.496-9.216 0-0.032 0-0.096 0.032-0.128 0.16-0.224 0.32-0.448 0.48-0.64 0.064-0.064 0.128-0.096 0.192-0.064 1.088 0.48 3.36 1.248 6.4 1.248 1.888 0 3.776-0.32 5.632-0.928 1.536-0.512 2.688-0.768 3.488-0.768h0.064c0.032 0 0.96 0 1.376 0.704 0.032 0.032 0.032 0.064 0.032 0.128-0.16 0.864-0.256 2.4-0.128 2.624 0.192 0.352 0.288 1.184 0.384 2.272 0.224 1.888 0.544 4.768 1.472 4.768 0.096 0 0.192-0.032 0.288-0.064 0 0 0.032 0 0.032-0.032l0.032-0.032c0.064-0.032 0.128-0.032 0.16 0 0.064 0.032 0.096 0.096 0.096 0.16-0.192 7.456-5.184 13.248-11.36 13.248zM4.96 19.040c0.32 7.072 5.152 12.608 11.040 12.608 5.92 0 10.72-5.504 11.040-12.608-0.096 0.032-0.16 0.032-0.256 0.032-1.248 0-1.568-2.816-1.824-5.088-0.096-0.96-0.224-1.888-0.352-2.176-0.224-0.416 0-2.272 0.096-2.784-0.352-0.48-1.056-0.48-1.056-0.48h-0.064c-0.768 0-1.92 0.256-3.392 0.768-1.856 0.64-3.808 0.96-5.728 0.96-2.976 0-5.248-0.736-6.4-1.216-0.128 0.128-0.224 0.288-0.352 0.448 0.16 2.56 0.224 8.352-2.752 9.536z"></path>
</g>
<g id="icon-lisses">
	<path class="path1" d="M6.257 0.011l12.234 31.877-0.358 0.138-12.234-31.877 0.359-0.138z"></path>
	<path class="path2" d="M8.793-0.001l12.234 31.877-0.358 0.138-12.234-31.877 0.358-0.138z"></path>
	<path class="path3" d="M11.33-0.014l12.234 31.877-0.358 0.138-12.234-31.877 0.358-0.138z"></path>
	<path class="path4" d="M13.878 0.003l12.234 31.877-0.358 0.138-12.234-31.877 0.358-0.138z"></path>
</g>
<g id="icon-long">
	<path class="path1" d="M28.064 32l-5.92-1.824c-2.496-1.248-2.336-6.368-2.336-6.592v-0.032c0.032-0.096 3.968-9.536 3.136-11.488-0.064-0.128-0.16-0.224-0.256-0.288-1.696-0.64-3.52-2.848-3.936-3.392-0.352 0.384-1.568 1.728-3.232 3.072-1.824 1.472-4.512 3.2-7.104 3.2-0.416 0-0.864-0.064-1.248-0.128 0.032 3.264 3.392 7.2 4.256 8.16v-0.032h0.256v2.176c0 5.12-2.88 5.44-3.168 5.472l-3.712 1.216v-0.16c0-1.952 0.096-3.488 0.16-4.864 0.16-2.912 0.256-5.216-0.384-9.664-1.12-7.488-0.768-11.52 1.28-13.856 1.792-2.112 4.992-2.976 10.944-2.976 2.72 0 3.488 1.6 3.68 2.144 1.216-0.896 2.336-0.864 3.296 0.096 1.888 1.888 3.168 7.456 3.84 16.544 0.48 6.752 0.448 12.992 0.448 13.056v0.16zM20.032 23.616c0 0.352-0.096 5.216 2.176 6.336l5.6 1.728c0-2.176 0-24.992-4.224-29.248-0.896-0.896-1.92-0.896-3.072 0.064l-0.16 0.128-0.032-0.192c-0.032-0.096-0.448-2.144-3.488-2.144-5.888 0-9.024 0.832-10.784 2.88-1.984 2.304-2.336 6.24-1.216 13.664 0.672 4.48 0.544 6.784 0.384 9.728-0.064 1.312-0.16 2.816-0.16 4.672l3.456-1.152c0.128 0 2.944-0.128 2.944-5.216v-1.792c-0.192-0.224-1.248-1.344-2.272-2.848-1.536-2.24-2.304-4.224-2.272-5.856v-0.16l0.16 0.032c0.416 0.128 0.864 0.16 1.344 0.16 4.832 0 10.208-6.24 10.272-6.304l0.096-0.128 0.096 0.128c0.032 0.032 2.080 2.72 3.936 3.424 0.16 0.064 0.32 0.192 0.384 0.416 0.832 2.016-2.88 11.040-3.168 11.68z"></path>
	<path class="path2" d="M14.848 23.552c-1.376 0-2.72-0.384-3.936-1.12h-0.032c-1.216-1.408-4.032-5.024-3.968-8.096v-0.16l0.16 0.032c0.416 0.128 0.864 0.16 1.344 0.16 0 0 0 0 0 0 4.832 0 10.208-6.24 10.272-6.304l0.096-0.128 0.096 0.128c0.032 0.032 2.080 2.72 3.936 3.424 0.992 0.384 0.544 3.264-1.344 8.544l-0.032 0.032c-1.696 2.24-4.096 3.488-6.592 3.488zM11.040 22.272c1.184 0.704 2.464 1.056 3.808 1.056 2.432 0 4.736-1.216 6.336-3.36 1.76-4.896 2.304-7.904 1.504-8.192-1.696-0.64-3.52-2.848-3.936-3.392-0.768 0.896-5.696 6.272-10.336 6.272 0 0 0 0 0 0-0.416 0-0.864-0.064-1.248-0.128 0.032 2.912 2.72 6.368 3.872 7.744z"></path>
</g>
<g id="icon-milong">
	<path class="path1" d="M14.848 32c-9.632 0-10.944-8.096-11.072-11.552 0-0.032 0-0.064 0.032-0.096 1.216-2.048 2.272-8.608 2.112-10.88 0-0.544 0.032-1.088 0.416-1.088 0.16 0 0.288 0.128 0.416 0.224 0.064 0.032 0.096 0.096 0.16 0.128 1.056 0.448 3.36 1.248 6.368 1.248 1.888 0 3.776-0.32 5.632-0.928 1.536-0.512 2.688-0.768 3.488-0.768h0.064c0.032 0 0.96 0 1.376 0.704 0 0.032 0.032 0.032 0.032 0.064 0.096 0.64 0.064 1.536-0.128 2.784-0.16 1.184 0.576 6.016 2.272 7.68 0.032 0.032 0.064 0.096 0.064 0.128-0.448 7.36-4.96 12.352-11.232 12.352zM4.128 20.48c0.128 3.392 1.44 11.168 10.72 11.168 6.112 0 10.4-4.704 10.912-11.968-1.792-1.824-2.496-6.688-2.336-7.936 0.16-1.184 0.192-2.016 0.128-2.656-0.352-0.48-1.056-0.512-1.056-0.512h-0.064c-0.768 0-1.92 0.256-3.392 0.768-1.856 0.64-3.808 0.96-5.728 0.96-3.072 0-5.408-0.8-6.528-1.28-0.096-0.064-0.16-0.096-0.224-0.16s-0.16-0.128-0.224-0.128c0 0-0.064 0.128-0.064 0.736 0.16 2.272-0.864 8.8-2.144 11.008z"></path>
	<path class="path2" d="M26.080 26.784v0c-0.224 0-0.416-0.096-0.544-0.256-0.512-0.608-0.288-2.176-0.256-2.336 0.032-0.832 0.032-0.992 0.096-1.184 0.032-0.16 0.064-0.32 0.096-0.864 0.032-0.448 0.192-1.088 0.224-1.312-0.032-0.096 0-0.224 0.064-0.608 0.032-0.192 0.064-0.448 0.064-0.544-2.272-3.040-2.336-6.496-2.336-7.808v-0.064c-0.064-0.288 0-0.64 0.064-1.056 0.096-0.64 0.224-1.376-0.128-1.76-0.512-0.576-1.952-0.448-4.32 0.384-1.792 0.64-3.68 0.96-5.568 0.96-3.616 0-6.368-1.216-7.168-1.6-0.128 1.504-0.448 8.64-2.24 11.744 0 0.16 0.032 0.352 0.032 0.512 0.064 0.928 0.16 2.016 0.448 3.008v0.064l-0.032 0.064c-0.064 0.192-0.768 2.016-1.664 2.016-0.256 0-0.48-0.128-0.672-0.384-1.056-1.312-1.152-6.24-1.28-16.416 0-0.992 0.224-1.824 0.448-2.56 0.032-0.192 0.096-0.384 0.192-0.544l0.064-0.096c0.16-0.288 0.384-0.448 0.64-0.512 1.44-0.416 9.376-5.088 9.44-5.152 0 0 0.576-0.448 1.248-0.448 0.64 0 11.264 0.8 11.872 0.832 0.032 0 0.384-0.032 0.832 0.192 4.384 1.568 5.024 5.6 5.152 6.784 0.672 7.936-0.832 15.936-3.424 18.24-0.544 0.48-0.992 0.704-1.344 0.704zM26.176 20.32l-0.128 0.512c0 0-0.192 0.832-0.224 1.312-0.032 0.544-0.064 0.736-0.096 0.896-0.032 0.192-0.064 0.32-0.064 1.152-0.064 0.448-0.16 1.664 0.192 2.080 0.064 0.096 0.16 0.128 0.288 0.128 0.192 0 0.512-0.096 1.088-0.608 2.496-2.176 3.968-10.24 3.328-17.92-0.16-1.152-0.8-4.992-4.96-6.528-0.32-0.16-0.576-0.16-0.672-0.16v0h-0.032c-0.128 0-11.232-0.832-11.84-0.832-0.576 0-1.056 0.384-1.056 0.384-0.384 0.192-8.096 4.768-9.568 5.184-0.192 0.064-0.352 0.192-0.448 0.416l-0.064 0.096c-0.064 0.128-0.096 0.288-0.128 0.416-0.256 0.736-0.448 1.536-0.448 2.464 0.128 9.824 0.224 15.008 1.216 16.224 0.128 0.16 0.256 0.256 0.416 0.256 0.48 0 1.056-1.056 1.312-1.728-0.288-1.024-0.352-2.080-0.448-3.008-0.032-0.192-0.032-0.384-0.064-0.576v-0.064l0.032-0.064c1.952-3.296 2.144-11.84 2.144-11.936v-0.288l0.256 0.16c0.032 0.032 3.008 1.696 7.264 1.696 1.856 0 3.68-0.32 5.472-0.928 2.624-0.928 4.096-1.024 4.704-0.288 0.448 0.512 0.32 1.344 0.192 2.048-0.064 0.384-0.128 0.736-0.064 0.928v0.128c0 1.28 0.064 4.704 2.304 7.648 0.064 0.096 0.064 0.16-0.032 0.768 0 0.032 0 0.096-0.032 0.16l0.16-0.128z"></path>
</g>
<g id="icon-ondules">
	<path class="path1" d="M12 32c-0.96-0.864-1.44-1.664-1.408-2.464 0.064-1.472 1.696-2.72 3.968-4.448 0.896-0.704 1.952-1.472 2.976-2.368 1.12-0.96 1.6-1.76 1.472-2.432-0.288-1.312-3.040-2.048-5.952-2.816-1.12-0.288-2.272-0.608-3.36-0.96-2.72-0.928-4.576-1.792-4.8-3.104-0.192-1.088 0.736-2.4 3.008-4.192 2.752-2.176 6.528-5.184 5.92-6.976-0.352-1.12-2.304-1.728-5.824-1.888v-0.352c3.744 0.16 5.76 0.864 6.176 2.112 0.608 1.888-2.368 4.448-6.048 7.36-2.144 1.696-3.072 2.912-2.912 3.872 0.16 0.992 1.504 1.792 4.576 2.848 1.056 0.352 2.208 0.672 3.328 0.96 3.008 0.8 5.888 1.568 6.208 3.104 0.192 0.8-0.32 1.696-1.568 2.752-1.056 0.896-2.080 1.696-2.976 2.368-2.176 1.664-3.776 2.88-3.84 4.16-0.032 0.672 0.384 1.408 1.28 2.176l-0.224 0.288z"></path>
	<path class="path2" d="M14.592 32c-0.96-0.864-1.44-1.664-1.408-2.464 0.064-1.472 1.696-2.72 3.968-4.448 0.896-0.704 1.952-1.472 2.976-2.368 1.12-0.96 1.6-1.76 1.472-2.432-0.288-1.312-3.040-2.048-5.952-2.816-1.12-0.288-2.272-0.608-3.36-0.96-2.72-0.928-4.576-1.792-4.8-3.104-0.192-1.088 0.736-2.4 3.040-4.192 2.72-2.176 6.496-5.184 5.888-6.976-0.352-1.088-2.304-1.728-5.824-1.888v-0.352c3.712 0.16 5.728 0.864 6.144 2.112 0.608 1.888-2.368 4.448-6.048 7.36-2.144 1.696-3.072 2.912-2.912 3.872 0.16 0.992 1.504 1.792 4.576 2.848 1.056 0.352 2.208 0.672 3.328 0.96 3.008 0.8 5.888 1.568 6.208 3.104 0.192 0.8-0.32 1.696-1.568 2.752-1.056 0.896-2.080 1.696-2.976 2.368-2.176 1.664-3.776 2.88-3.84 4.16-0.032 0.672 0.384 1.408 1.28 2.176l-0.192 0.288z"></path>
	<path class="path3" d="M17.184 32c-0.96-0.864-1.44-1.664-1.408-2.464 0.064-1.472 1.696-2.72 3.968-4.448 0.896-0.704 1.952-1.472 2.976-2.368 1.12-0.96 1.6-1.76 1.472-2.432-0.288-1.312-3.040-2.048-5.952-2.816-1.12-0.288-2.272-0.608-3.36-0.96-2.72-0.928-4.576-1.792-4.8-3.104-0.192-1.088 0.736-2.4 3.040-4.192 2.72-2.176 6.496-5.184 5.888-6.976-0.352-1.088-2.304-1.728-5.824-1.888v-0.352c3.712 0.16 5.728 0.864 6.144 2.112 0.608 1.888-2.368 4.448-6.048 7.36-2.144 1.696-3.072 2.912-2.912 3.872 0.16 0.992 1.504 1.792 4.576 2.848 1.056 0.352 2.208 0.672 3.328 0.96 3.008 0.8 5.888 1.568 6.208 3.104 0.192 0.8-0.32 1.696-1.568 2.752-1.056 0.896-2.080 1.696-2.976 2.368-2.176 1.664-3.776 2.88-3.84 4.16-0.032 0.672 0.384 1.408 1.28 2.176l-0.192 0.288z"></path>
	<path class="path4" d="M19.776 32c-0.96-0.864-1.44-1.664-1.408-2.464 0.064-1.472 1.696-2.72 3.968-4.448 0.896-0.704 1.952-1.472 2.976-2.368 1.12-0.96 1.6-1.76 1.472-2.432-0.288-1.312-3.040-2.048-5.952-2.816-1.12-0.288-2.272-0.608-3.36-0.96-2.72-0.928-4.576-1.792-4.8-3.104-0.192-1.088 0.736-2.4 3.040-4.192 2.72-2.176 6.496-5.184 5.888-6.976-0.352-1.088-2.304-1.728-5.824-1.888v-0.352c3.744 0.16 5.76 0.864 6.176 2.112 0.608 1.888-2.368 4.448-6.048 7.36-2.144 1.696-3.072 2.912-2.912 3.872 0.16 0.992 1.504 1.792 4.576 2.848 1.056 0.352 2.208 0.672 3.328 0.96 3.008 0.8 5.888 1.568 6.208 3.104 0.192 0.8-0.32 1.696-1.568 2.752-1.056 0.896-2.080 1.696-2.976 2.368-2.176 1.664-3.776 2.88-3.84 4.16-0.032 0.672 0.384 1.408 1.28 2.176l-0.224 0.288z"></path>
</g>
</defs>

<g fill="#000000">
	<use xlink:href="#icon-activites" transform="translate(0 0)"></use>
	<use xlink:href="#icon-boucles" transform="translate(48 0)"></use>
	<use xlink:href="#icon-catalogue" transform="translate(96 0)"></use>
	<use xlink:href="#icon-couleurs" transform="translate(144 0)"></use>
	<use xlink:href="#icon-court" transform="translate(192 0)"></use>
	<use xlink:href="#icon-lisses" transform="translate(240 0)"></use>
	<use xlink:href="#icon-long" transform="translate(288 0)"></use>
	<use xlink:href="#icon-milong" transform="translate(336 0)"></use>
	<use xlink:href="#icon-ondules" transform="translate(384 0)"></use>
</g>

</svg>
