<?xml version="1.0" encoding="utf-8"?>
<!-- Generator: Adobe Illustrator 17.1.0, SVG Export Plug-In . SVG Version: 6.00 Build 0)  -->
<!DOCTYPE svg PUBLIC "-//W3C//DTD SVG 1.1//EN" "http://www.w3.org/Graphics/SVG/1.1/DTD/svg11.dtd">
<svg version="1.1" id="Calque_1" xmlns="http://www.w3.org/2000/svg" xmlns:xlink="http://www.w3.org/1999/xlink" x="0px" y="0px"
	 width="71px" height="67px" viewBox="0 0 71 67" enable-background="new 0 0 71 67" xml:space="preserve">
<g>
	<path fill="#FFFFFF" d="M16.4,49h5V18.6h-5V18h10.1l8.3,23.9h0.1L43.1,18H53v0.6h-5V49h5v0.6H38.6V49h5V18.9h-0.1L32.7,49.6
		L22.1,19.2H22V49h5v0.6H16.4V49z"/>
</g>
<g>
	<polygon fill="#FFFFFF" points="71,12 69,12 69,2 46,2 46,0 71,0 	"/>
	<polygon fill="#FFFFFF" points="71,67 0,67 0,0 18,0 18,2 2,2 2,65 69,65 69,32 71,32 	"/>
</g>
</svg>
