<?xml version="1.0" encoding="utf-8"?>
<!-- Generator: Adobe Illustrator 17.0.0, SVG Export Plug-In . SVG Version: 6.00 Build 0)  -->
<!DOCTYPE svg PUBLIC "-//W3C//DTD SVG 1.1//EN" "http://www.w3.org/Graphics/SVG/1.1/DTD/svg11.dtd">
<svg version="1.1" id="Calque_1" xmlns="http://www.w3.org/2000/svg" xmlns:xlink="http://www.w3.org/1999/xlink" x="0px" y="0px"
	 width="121px" height="93.4px" viewBox="0 0 121 93.4" enable-background="new 0 0 121 93.4" xml:space="preserve">
<g id="Calque_2_1_">
</g>
<g id="Calque_2" display="none">
	<rect y="-0.1" display="inline" fill="#1D1D1B" width="121" height="63.1"/>
</g>
<g>
	<g>
		<circle fill="#262626" cx="14.8" cy="7.9" r="7.9"/>
	</g>
	<g>
		<path fill="#262626" d="M29,30v-5.1C29,21,24.2,19,18.5,19h-8.1C4.6,19,0,21,0,24.9V30H29z"/>
	</g>
</g>
<g>
	<g>
		<circle cx="14.8" cy="37.9" r="7.9"/>
	</g>
	<g>
		<path d="M29,60v-5.1C29,51,24.2,49,18.5,49h-8.1C4.6,49,0,51,0,54.9V60H29z"/>
	</g>
</g>
<g>
	<g>
		<path fill="#262626" d="M48.5,0H38.4C33.3,0,29,4,29,8.4v29.9c0,4.5,4.2,8.4,9.4,8.4h10.2c5.1,0,9.4-3.9,9.4-8.4V8.4
			C57.9,3.9,53.7,0,48.5,0z M43.7,44.5c-1,0-1.7-0.5-1.7-1.1s0.8-1.1,1.7-1.1c1,0,1.7,0.5,1.7,1.1S44.6,44.5,43.7,44.5z M55.7,32.7
			c0,3.5-3.6,7.3-7.9,7.3h-8.7c-4.3,0-7.9-3.8-7.9-7.3V9.2c0-3.5,3.6-6.2,7.9-6.2h8.6c4.3,0,7.9,2.7,7.9,6.2L55.7,32.7L55.7,32.7z"
			/>
	</g>
</g>
<g>
	<g>
		<path d="M48.5,46.7H38.4c-5.1,0-9.4,4-9.4,8.4V85c0,4.5,4.2,8.4,9.4,8.4h10.2c5.1,0,9.4-3.9,9.4-8.4V55.1
			C57.9,50.6,53.7,46.7,48.5,46.7z M43.7,91.2c-1,0-1.7-0.5-1.7-1.1s0.8-1.1,1.7-1.1c1,0,1.7,0.5,1.7,1.1S44.6,91.2,43.7,91.2z
			 M55.7,79.4c0,3.5-3.6,7.3-7.9,7.3h-8.7c-4.3,0-7.9-3.8-7.9-7.3V55.9c0-3.5,3.6-6.2,7.9-6.2h8.6c4.3,0,7.9,2.7,7.9,6.2L55.7,79.4
			L55.7,79.4z"/>
	</g>
</g>
<path fill="#262626" d="M73.9,6.9c-2.8,0-5.1,2.3-5.1,5.1s2.3,5,5.1,5c2.8,0,5.1-2.3,5.1-5C78.9,9.2,76.7,6.9,73.9,6.9z"/>
<path fill="#262626" d="M83.4,2h-7.3V0h-4v2h-7.7c-3.4,0-6.3,2.5-6.3,5.8v7.7c0,3.3,2.9,5.5,6.3,5.5h19c3.4,0,6.7-2.2,6.7-5.5V7.8
	C90.1,4.5,86.7,2,83.4,2z M73.9,18.8c-3.8,0-6.9-3.1-6.9-6.9S70.1,5,73.9,5s6.9,3.1,6.9,6.9S77.7,18.8,73.9,18.8z M85.1,7h-4V5h4V7z
	"/>
</svg>
